<svg xmlns="http://www.w3.org/2000/svg" viewBox="-50 -50 100 100">
  <!-- cell -->
  <g transform="scale(0.9)">
    <!-- wall -->
    <path
      fill="#BBDEFB"
      transform="rotate(15)"
      d="M9.38 -45.5L9.38 -45.5C12.18 -41.44 17.22 -39.62 21.98 -40.88L21.98 -40.88C29.68 -43.12 37.24 -36.82 36.4 -28.7V-28.7C35.84 -23.8 38.64 -19.18 43.12 -17.08L43.12 -17.08C50.4 -13.86 52.22 -4.2 46.34 1.4L46.34 1.4C42.84 4.76 41.86 10.08 43.96 14.56L43.96 14.56C47.46 21.84 42.56 30.38 34.58 30.94H34.58C29.68 31.36 25.62 34.72 24.36 39.48L24.36 39.48C22.4 47.32 13.16 50.68 6.58 45.92L6.58 45.92C2.66 42.98 -2.8 42.98 -6.72 45.92L-6.72 45.92C-13.3 50.68 -22.54 47.32 -24.5 39.48L-24.5 39.48C-25.76 34.72 -29.82 31.22 -34.72 30.94H-34.72C-42.7 30.38 -47.6 21.84 -44.1 14.56L-44.1 14.56C-42 10.08 -42.84 4.9 -46.48 1.4L-46.48 1.4C-52.22 -4.2 -50.54 -13.86 -43.26 -17.22L-43.26 -17.22C-38.78 -19.18 -36.12 -23.94 -36.54 -28.84L-36.54 -28.84C-37.38 -36.82 -29.82 -43.12 -22.12 -41.02L-22.12 -41.02C-17.36 -39.62 -12.32 -41.58 -9.52 -45.64L-9.52 -45.64C-4.9 -52.08 4.9 -52.08 9.38 -45.5Z"
    />
    <!-- floaties -->
    <circle
      fill="none"
      stroke="#ffffff"
      stroke-width="5"
      stroke-linecap="round"
      stroke-dasharray="5 20 20 35 30 30 10 99999"
      transform="rotate(90)"
      opacity="0.3"
      cx="0"
      cy="0"
      r="36"
    />
  </g>

  <!-- background -->
  <circle fill="#ffffff" opacity="0.5" cx="0" cy="0" r="20" />
  <!-- compare -->
  <path
    fill="#9FA8DA"
    transform="rotate(135)"
    d="
      M 0 -20
      L 0 20
      A 20 20 0 0 0 0 -20
    "
  />

  <!-- bonds -->
  <path
    fill="none"
    stroke="#9FA8DA"
    stroke-width="3"
    stroke-linecap="round"
    d="
      M -10 0
      L 10 0
      M 0 -10
      L 0 10
    "
  />
  <!-- nuclei -->
  <g fill="#3F51B5">
    <circle cx="0" cy="0" r="3" />
    <circle cx="0" cy="-10" r="3" />
    <circle cx="10" cy="0" r="3" />
    <circle cx="0" cy="10" r="3" />
    <circle cx="-10" cy="0" r="3" />
  </g>

  <!-- magnifier -->
  <g fill="none" stroke="#505060" stroke-width="5" stroke-linecap="round">
    <circle cx="0" cy="0" r="20" />
    <line x1="14.1" y1="14.1" x2="24" y2="24" />
  </g>
</svg>
